<?xml version="1.0" encoding="utf-8"?>
<!-- Generator: Adobe Illustrator 23.1.1, SVG Export Plug-In . SVG Version: 6.00 Build 0)  -->
<svg version="1.1" id="Layer_12" xmlns="http://www.w3.org/2000/svg" xmlns:xlink="http://www.w3.org/1999/xlink" x="0px" y="0px"
	 viewBox="0 0 361.5 397.5" style="enable-background:new 0 0 361.5 397.5;" xml:space="preserve">
<style type="text/css">
	.st0{fill:#C9994B;}
	.st1{fill:#00AEEF;}
</style>
<g>
	<polygon class="st0" points="298.2,361.9 310.1,361.9 310.1,359.5 301.1,359.5 301.1,351.7 309.1,351.7 309.1,349.4 301.1,349.4 
		301.1,341.8 310.1,341.8 310.1,339.5 298.2,339.5 	"/>
	<path class="st0" d="M284.1,339.5H277v22.4h7.1c3.6,0,6.5-1,8.6-2.9s3.1-4.7,3.1-8.2c0-3.5-1-6.3-3.1-8.3
		C290.5,340.5,287.7,339.5,284.1,339.5z M290.5,357.3c-1.5,1.6-3.6,2.3-6.5,2.3h-4.1v-17.7h4.1c2.8,0,5,0.8,6.5,2.3
		c1.5,1.6,2.2,3.7,2.2,6.5S292,355.7,290.5,357.3z"/>
	<rect x="270.5" y="339.5" class="st0" width="2.9" height="22.4"/>
	<path class="st0" d="M264,354c0,1.8-0.5,3.2-1.5,4.2c-1,0.9-2.3,1.4-4.1,1.4s-3.1-0.5-4.1-1.4c-1-0.9-1.5-2.3-1.5-4.2v-14.6h-3V354
		c0,2.6,0.8,4.6,2.4,6c1.6,1.4,3.6,2.1,6.1,2.1c2.5,0,4.5-0.7,6.1-2.1c1.6-1.4,2.4-3.4,2.4-6v-14.6H264L264,354L264,354z"/>
	<path class="st0" d="M235.2,352h9.3c-0.2,2.3-1.1,4.1-2.5,5.4c-1.4,1.3-3.3,2-5.7,2s-4.3-0.8-5.9-2.4c-1.6-1.6-2.4-3.8-2.4-6.4
		s0.8-4.8,2.4-6.4c1.6-1.6,3.6-2.4,6-2.4c3.1,0,5.4,1.3,6.7,3.8h3.6c-0.9-2.1-2.2-3.7-4-4.8c-1.8-1.1-3.9-1.6-6.2-1.6
		c-3.2,0-5.9,1.1-8.1,3.2c-2.2,2.1-3.3,4.9-3.3,8.2s1.1,6,3.3,8.2c2.2,2.2,4.8,3.2,7.9,3.2s5.7-0.9,7.8-2.8s3.3-4.3,3.6-7.2v-2.3
		h-12.4L235.2,352L235.2,352z"/>
	<polygon class="st0" points="211.8,339.5 206.6,348.3 201.2,339.5 197.9,339.5 204.8,350.6 197.9,361.9 201.2,361.9 206.3,353 
		211.8,361.9 215,361.9 208.1,350.7 215,339.5 	"/>
	<path class="st0" d="M184.8,339.5l-8.2,22.4h3l1.7-4.9h10l1.7,4.9h3l-8.1-22.4H184.8z M182.2,354.6l4.1-11.6l4.1,11.6H182.2z"/>
	<polygon class="st0" points="162.7,357.8 154.2,339.5 151.2,339.5 151.2,361.9 154.2,361.9 154.2,345.5 161.7,361.9 163.6,361.9 
		171.1,345.5 171.1,361.9 174.1,361.9 174.1,339.5 171.1,339.5 	"/>
	<polygon class="st0" points="133.2,339.5 130.2,339.5 130.2,361.9 141,361.9 141,359.6 133.2,359.6 	"/>
	<polygon class="st0" points="115.2,361.9 127.1,361.9 127.1,359.5 118.1,359.5 118.1,351.7 126.1,351.7 126.1,349.4 118.1,349.4 
		118.1,341.8 127.1,341.8 127.1,339.5 115.2,339.5 	"/>
	<polygon class="st0" points="103,358.7 96,339.5 92.8,339.5 101.5,361.9 104.6,361.9 113.3,339.5 110.1,339.5 	"/>
	<path class="st0" d="M80.6,339.5l-8.2,22.4h3l1.7-4.9h10l1.7,4.9h3l-8.1-22.4H80.6z M78,354.6l4.1-11.6l4.1,11.6H78z"/>
	<path class="st0" d="M68.4,350.3c1-1.2,1.5-2.7,1.5-4.4c0-1.8-0.7-3.3-2-4.5c-1.3-1.2-3.3-1.8-5.8-1.8h-7.3v22.4h2.9v-9.3h2.9
		l5.9,9.3h3.7l-6.2-9.4C65.9,352.2,67.4,351.4,68.4,350.3z M57.7,350.3v-8.5H62c3.2,0,4.8,1.4,4.8,4.2c0,1.3-0.4,2.4-1.2,3.1
		c-0.8,0.7-2,1.1-3.6,1.1H57.7z"/>
	<polygon class="st0" points="37.4,341.8 43.3,341.8 43.3,361.9 46.3,361.9 46.3,341.8 52.2,341.8 52.2,339.5 37.4,339.5 	"/>
	<path class="st0" d="M191.2,279.7v30v1.6h1.6h10.7h1.6v-1.6v-13.1c1.2,3.2,3.1,6,5.5,8.3c5,4.8,11.8,7.3,20.3,7.3
		c7.5,0,13.9-1.5,19.1-4.5l0.8-0.5v-0.9V281v-1.6h-1.5H228h-1.6v1.6v8.7v1.5h1.6h8.7v7.9c-1.5,0.5-3.3,0.8-5.4,0.8
		c-4.3,0-7.6-1.3-10.1-4c-2.5-2.7-3.7-6.5-3.7-11.4c0-4.9,1.4-8.6,4.1-11.6c2.8-2.9,6.3-4.3,10.8-4.3c5.4,0,10,1.1,13.7,3.2l2.3,1.4
		v-2.7v-10.3v-1.1l-1-0.4c-4.2-1.6-9.2-2.4-14.8-2.4c-8.8,0-16,2.7-21.5,8c-2.8,2.7-4.8,5.8-6.2,9.3v-14.9v-1.6h-1.6h-15.3H187
		l-0.4,1l-11,30.7c-0.2,0.6-0.4,1.2-0.6,1.9c-0.2-0.6-0.4-1.2-0.6-1.9L163,257.3h-1.1H110l-8.8,12h20.6v40.4v1.6h1.6h10.9h1.5v-1.6
		v-40.4h8.9v40.4v1.6h1.5h9.8h1.6v-1.6V281c0-0.4,0-0.8,0-1.2l11.2,30.5l0.4,1h1.1h8.6h1.1l0.4-1L191.2,279.7z"/>
	<path class="st0" d="M315,386.8c-0.3-0.3-0.7-0.5-1.1-0.5c-0.4,0-0.8,0.2-1.1,0.5c-0.3,0.3-0.5,0.7-0.5,1.2s0.2,0.8,0.5,1.2
		c0.3,0.3,0.7,0.5,1.1,0.5c0.4,0,0.8-0.2,1.1-0.5c0.3-0.3,0.5-0.7,0.5-1.2C315.5,387.5,315.4,387.1,315,386.8z"/>
	<path class="st0" d="M299.6,370.4h-6.1v19.2h6.1c3.1,0,5.5-0.8,7.3-2.5c1.8-1.7,2.7-4,2.7-7c0-3-0.9-5.4-2.7-7.1
		C305.2,371.2,302.7,370.4,299.6,370.4z M305.2,385.7c-1.3,1.3-3.1,2-5.5,2h-3.6v-15.1h3.6c2.4,0,4.3,0.7,5.5,2
		c1.3,1.3,1.9,3.2,1.9,5.6C307.1,382.5,306.4,384.3,305.2,385.7z"/>
	<polygon class="st0" points="277.6,372.4 282.6,372.4 282.6,389.6 285.2,389.6 285.2,372.4 290.2,372.4 290.2,370.4 277.6,370.4 	
		"/>
	<polygon class="st0" points="269.1,370.4 266.5,370.4 266.5,389.6 275.8,389.6 275.8,387.7 269.1,387.7 	"/>
	<path class="st0" d="M253,386.3c-0.4,0-0.8,0.2-1.1,0.5c-0.3,0.3-0.5,0.7-0.5,1.2s0.2,0.8,0.5,1.2c0.3,0.3,0.7,0.5,1.1,0.5
		s0.8-0.2,1.1-0.5c0.3-0.3,0.5-0.7,0.5-1.2c0-0.5-0.2-0.8-0.5-1.2C253.8,386.5,253.4,386.3,253,386.3z"/>
	<polygon class="st0" points="235.9,372.4 241,372.4 241,389.6 243.5,389.6 243.5,372.4 248.6,372.4 248.6,370.4 235.9,370.4 	"/>
	<polygon class="st0" points="225.3,386.9 219.2,370.4 216.5,370.4 223.9,389.6 226.7,389.6 234.1,370.4 231.4,370.4 	"/>
	<path class="st0" d="M208.2,370.4h-6.2v19.2h2.5v-7.9h3.7c2.2,0,3.9-0.5,5-1.6c1.1-1.1,1.7-2.4,1.7-4.1s-0.6-3-1.7-4
		C212,370.9,210.3,370.4,208.2,370.4z M211.3,378.7c-0.7,0.6-1.7,1-3.1,1h-3.7v-7.3h3.7c2.7,0,4.1,1.2,4.1,3.6
		C212.3,377.2,211.9,378.1,211.3,378.7z"/>
	<polygon class="st0" points="179.6,389.6 189.8,389.6 189.8,387.6 182.1,387.6 182.1,380.9 189,380.9 189,378.9 182.1,378.9 
		182.1,372.4 189.8,372.4 189.8,370.4 179.6,370.4 	"/>
	<path class="st0" d="M174.1,379.6c0.8-1,1.2-2.3,1.2-3.8s-0.6-2.8-1.7-3.9c-1.1-1.1-2.8-1.6-5-1.6h-6.2v19.2h2.5v-7.9h2.5l5,7.9
		h3.2l-5.3-8C172.1,381.3,173.3,380.7,174.1,379.6z M165,379.7v-7.3h3.7c2.7,0,4.1,1.2,4.1,3.6c0,1.1-0.3,2-1,2.7
		c-0.7,0.6-1.7,1-3.1,1H165z"/>
	<path class="st0" d="M155.9,382.9c0,1.6-0.4,2.8-1.3,3.6c-0.9,0.8-2,1.2-3.5,1.2c-1.5,0-2.6-0.4-3.5-1.2c-0.8-0.8-1.3-2-1.3-3.6
		v-12.5h-2.6v12.5c0,2.3,0.7,4,2.1,5.2c1.4,1.2,3.1,1.8,5.2,1.8c2.1,0,3.9-0.6,5.2-1.8c1.4-1.2,2.1-2.9,2.1-5.2v-12.5h-2.5
		L155.9,382.9L155.9,382.9z"/>
	<polygon class="st0" points="127.8,372.4 132.9,372.4 132.9,389.6 135.4,389.6 135.4,372.4 140.5,372.4 140.5,370.4 127.8,370.4 	
		"/>
	<polygon class="st0" points="122,385.6 111.9,370.4 109.4,370.4 109.4,389.6 111.9,389.6 111.9,374.3 122,389.6 124.5,389.6 
		124.5,370.4 122,370.4 	"/>
	<polygon class="st0" points="95.4,389.6 105.5,389.6 105.5,387.6 97.9,387.6 97.9,380.9 104.7,380.9 104.7,378.9 97.9,378.9 
		97.9,372.4 105.5,372.4 105.5,370.4 95.4,370.4 	"/>
	<polygon class="st0" points="83.8,386.9 77.8,370.4 75.1,370.4 82.5,389.6 85.2,389.6 92.6,370.4 89.9,370.4 	"/>
	<path class="st0" d="M63.3,370.4h-6.1v19.2h6.1c3.1,0,5.5-0.8,7.3-2.5c1.8-1.7,2.7-4,2.7-7c0-3-0.9-5.4-2.7-7.1
		C68.8,371.2,66.4,370.4,63.3,370.4z M68.8,385.7c-1.3,1.3-3.1,2-5.5,2h-3.6v-15.1h3.6c2.4,0,4.3,0.7,5.5,2c1.3,1.3,1.9,3.2,1.9,5.6
		C70.7,382.5,70.1,384.3,68.8,385.7z"/>
	<path class="st0" d="M44.2,370.4l-7,19.2h2.6l1.5-4.2h8.5l1.5,4.2h2.6l-7-19.2H44.2z M42,383.4l3.6-9.9l3.5,9.9H42z"/>
	<path class="st1" d="M262.7,82.2c0-4-3.1-7.1-7.2-7.2c-3.9,0-7,3.1-7.1,7.2c0,4.1,3,7.2,7.1,7.2C259.6,89.4,262.7,86.3,262.7,82.2z
		"/>
	<path class="st0" d="M55.6,17.5c11.5,9.4,22.5,18.4,34.1,27.9c0-14.2,0-27.8,0-42.2c5.4,4.2,10.7,7.9,15.5,12.1
		c3.3,2.9,6,3.2,10.3,1.5c46.8-18.6,97.8-7.2,133,29.2c1,1,2.8,2.1,3.9,1.9c17.7-3.8,32.7,1.8,45.2,13.8c7.8,7.5,14,16.5,21.4,25.4
		c-4.2,0-7.1,0.1-10,0c-14-0.4-24.5,6.6-28,20.2c-2,7.7-2.9,15.9-2.9,23.9c0.1,19.9-2.8,38.9-11.9,56.8
		c-6.2,12.2-14.9,22.2-25.3,31.1c-13.6,11.7-28.4,20.8-45.6,26.1c-21.8,6.7-43.8,6.9-65.9,2c-11-2.4-20.3,0.2-27.7,8
		c-9.1,9.7-17.5,20.1-25.9,30.5c-6.4,7.8-12.2,16.1-18.6,24c-1,1.3-3.2,2.3-4.9,2.4c-4.7,0.3-9.4,0.1-15.2,0.1
		c35.6-48.1,70.8-95.7,106.2-143.5c-7.5-5.6-15.3-6.7-23.7-3.4c-8,3.1-14.2,8.5-19.4,15.1c-13.1-7.3-28.9-24.5-45.6-49.4
		c-2.2,7,3,30.7,9.6,44c6.9,13.8,16.1,25.8,28.2,36.2c-3,4.1-5.9,8.1-9,12.3c-9.8-7.9-18.1-16.9-24.8-27.2
		c-19.2-29.6-24.5-61.6-16.5-96c0.8-3.5,0.1-7.4-0.2-11.1C39.9,64.3,43.7,40.5,55.6,17.5z M156.9,120.2c-4.7-4.1-9.4-8.2-14.3-12.1
		c-8-6.5-16-13-23.9-19.6c-17-14.1-34-28.2-51-42.3c-1.9-1.6-3.9-3-6.3-4.7c-5.3,15.7-6.5,31.3-4.7,46.8
		c3.1,27.3,16.3,49.5,36.4,67.8c5.4,4.9,5.4,4.8,11.3,0.8c7.9-5.3,16.6-8.6,26.2-8c12.4,0.7,22,7.1,30.4,15.8
		c1.5,1.6,1.6,2.7,0.3,4.4c-3.6,4.7-7,9.5-10.6,14.3c-10,13.6-19.9,27.1-30,40.7c-2,2.7-1.7,3.9,1.6,5.1c11.1,4.2,22.5,6.4,34.3,6.8
		c24.1,0.9,45.9-6.3,65.8-19.6c11.9-8,21.3-18.5,29.1-30.5c7-10.8,11.2-22.7,12.2-35.5c0.8-10.9,0.7-21.8,1.6-32.7
		c1.1-12.7,4.6-24.7,14.6-33.6c3.6-3.2,7.8-5.6,12.1-8.6c-1.8-1.7-3.7-3.6-5.7-5.3c-11.2-9.3-23.8-13.2-37.3-6.3
		c-7.2,3.6-14.6,8.3-19.7,14.4c-13,15.6-24.7,32.3-36.9,48.5c-1.5,1.9-0.6,3.1,0.9,4.4c7.6,6.2,15.3,12.3,22.9,18.5
		c1.2,0.9,2.2,2,3.8,3.5c-12.4,0.1-12.6,0-16.5,0c-1.4,0-5.8-0.8-9.2-3.3c-5.9-4.3-12-9.1-17.6-13.7c-3.8-3.1-7.6-6-11.4-9.1
		C162.5,125,159.7,122.6,156.9,120.2z M237.2,54.4C206.3,22.2,159.4,15,123.4,29.2c26.2,20.3,52.2,40.5,78.5,60.8
		C211.7,75.8,222.6,63.3,237.2,54.4z M193.6,101.9c-29.6-23-58.7-45.6-88.5-68.7c0,8.2-0.2,15.2,0.1,22.2c0.1,1.7,1.2,3.8,2.5,4.9
		c12.9,10.8,25.9,21.4,38.9,32.1c10.3,8.5,20.6,16.9,30.9,25.4c1.4,1.2,3,2.7,4.7,0.3C185.9,112.9,189.6,107.6,193.6,101.9z"/>
	<path class="st0" d="M262.7,82.2c0,4-3.1,7.2-7.1,7.2c-4.1,0-7.1-3.1-7.1-7.2c0-4.1,3.1-7.3,7.1-7.2
		C259.6,75.1,262.6,78.2,262.7,82.2z"/>
</g>
</svg>
